<mxfile host="app.diagrams.net" modified="2024-03-09T08:50:29.446Z" agent="Mozilla/5.0 (X11; Linux x86_64; rv:124.0) Gecko/20100101 Firefox/124.0" version="24.0.3" etag="9GhuQ3LhS8XI4jCqmW4r" type="github">
  <diagram name="Page-1" id="IPvu8eXYr52vM9caE0wl">
    <mxGraphModel>
      <root>
        <mxCell id="0" />
        <mxCell id="1" parent="0" />
      </root>
    </mxGraphModel>
  </diagram>
</mxfile>
